<svg xmlns="http://www.w3.org/2000/svg" width="1200" height="2400" viewBox="0 0 1200 2400">
<style>
.h1 { font: 700 54px 'SF Pro Display', 'PingFang SC', sans-serif; fill: #5D514C; }
.h2 { font: 700 32px 'SF Pro Display', 'PingFang SC', sans-serif; fill: #5D514C; }
.h3 { font: 700 22px 'SF Pro Display', 'PingFang SC', sans-serif; fill: #5D514C; }
.body { font: 500 20px 'SF Pro Text', 'PingFang SC', sans-serif; fill: #8B7C75; }
.small { font: 500 16px 'SF Pro Text', 'PingFang SC', sans-serif; fill: #8B7C75; }
.label { font: 700 14px 'SF Pro Text', 'PingFang SC', sans-serif; letter-spacing: 2px; }
.nav { font: 600 16px 'SF Pro Text', 'PingFang SC', sans-serif; }
</style>
<rect x="0" y="0" width="1200" height="2400" rx="0" fill="#FFF8F3"/><circle cx="1060" cy="220" r="220" fill="#F7CAD6" opacity="0.32"/><circle cx="180" cy="2100" r="260" fill="#DCEAD9" opacity="0.5"/><circle cx="1080" cy="1870" r="150" fill="#F8E6B8" opacity="0.26"/><rect x="140" y="120" width="920" height="1960" rx="72" fill="#222024"/><rect x="158" y="138" width="884" height="1924" rx="58" fill="#FFFDF9"/><rect x="470" y="164" width="260" height="30" rx="15" fill="#1C1A1F"/><rect x="196" y="214" width="808" height="250" rx="36" fill="#F7CAD6" stroke="#E8DCCF" stroke-width="2"/><circle cx="904.0" cy="266.0" r="14.0" fill="#F7CAD6" stroke="#E8DCCF" stroke-width="1"/><circle cx="920.0" cy="280.0" r="14.0" fill="#F7CAD6" stroke="#E8DCCF" stroke-width="1"/><circle cx="914.0" cy="298.0" r="14.0" fill="#F7CAD6" stroke="#E8DCCF" stroke-width="1"/><circle cx="894.0" cy="298.0" r="14.0" fill="#F7CAD6" stroke="#E8DCCF" stroke-width="1"/><circle cx="888.0" cy="280.0" r="14.0" fill="#F7CAD6" stroke="#E8DCCF" stroke-width="1"/><circle cx="904" cy="284" r="10.0" fill="#F8E6B8" stroke="#E8DCCF" stroke-width="1"/><circle cx="901.0" cy="282.0" r="1.8" fill="#5D514C"/><circle cx="907.0" cy="282.0" r="1.8" fill="#5D514C"/><line x1="900.0" y1="288.0" x2="908.0" y2="288.0" stroke="#5D514C" stroke-width="1.6" stroke-linecap="round"/><path d="M 836 334 C 854 318, 862 332, 844 344 C 826 354, 828 332, 836 334 Z" fill="#DCEAD9" stroke="#E8DCCF" stroke-width="1.5"/><line x1="836" y1="334" x2="840" y2="344" stroke="#93B29A" stroke-width="2" stroke-linecap="round"/><text x="230" y="266" class="label" text-anchor="start" fill="#D88FA7">HEALING TODAY</text><text x="230" y="334" class="h1" text-anchor="start">今日总览</text><text x="230" y="380" class="body" text-anchor="start">像写手帐一样，轻轻记录今天。</text><rect x="230" y="408" width="124" height="38" rx="18" fill="#FFFDF9" stroke="#E8DCCF" stroke-width="1.2"/><text x="292.0" y="433" class="small" text-anchor="middle" fill="#D88FA7">柔和模式</text><rect x="364" y="408" width="136" height="38" rx="18" fill="#D88FA7" stroke="#E8DCCF" stroke-width="1.2"/><text x="432.0" y="433" class="small" text-anchor="middle" fill="#FFFFFF">快速记录</text><rect x="226" y="1876" width="748" height="118" rx="34" fill="#FFFDFC" stroke="#E8DCCF" stroke-width="2"/><rect x="206" y="1890" width="138" height="88" rx="30" fill="#F7CAD6" stroke="#E8DCCF" stroke-width="2"/><circle cx="266" cy="1916" r="16" fill="#D88FA7"/><text x="266" y="1960" class="nav" text-anchor="middle" fill="#D88FA7">Today</text><circle cx="446" cy="1916" r="16" fill="#CCBEB4"/><text x="446" y="1960" class="nav" text-anchor="middle" fill="#8B7C75">Journal</text><circle cx="636" cy="1916" r="16" fill="#CCBEB4"/><text x="636" y="1960" class="nav" text-anchor="middle" fill="#8B7C75">Trends</text><circle cx="830" cy="1916" r="16" fill="#CCBEB4"/><text x="830" y="1960" class="nav" text-anchor="middle" fill="#8B7C75">Vault</text><rect x="196" y="504" width="808" height="332" rx="38" fill="#FFFDFC" stroke="#E8DCCF" stroke-width="2"/><text x="232" y="552" class="label" text-anchor="start" fill="#D88FA7">今日节律</text><text x="232" y="620" class="h2" text-anchor="start">卵泡期，状态比较轻盈</text><text x="232" y="664" class="body" text-anchor="start">今天适合补睡眠、情绪和白带记录。</text><circle cx="836" cy="654" r="108" fill="none" stroke="#D88FA7" stroke-width="16"/><circle cx="836" cy="654" r="82" fill="none" stroke="#93B29A" stroke-width="12" opacity="0.45"/><text x="836" y="646" class="h2" text-anchor="middle" fill="#D88FA7">17</text><text x="836" y="680" class="small" text-anchor="middle">天</text><rect x="232" y="710" width="192" height="38" rx="18" fill="#DCEAD9" stroke="#E8DCCF" stroke-width="1.2"/><text x="328.0" y="735" class="small" text-anchor="middle" fill="#93B29A">易孕窗 3.22 - 3.27</text><rect x="436" y="710" width="180" height="38" rx="18" fill="#F8E6B8" stroke="#E8DCCF" stroke-width="1.2"/><text x="526.0" y="735" class="small" text-anchor="middle" fill="#C9A75C">记录完整度 82%</text><text x="196" y="894" class="h2" text-anchor="start">今天想记什么</text><rect x="196" y="934" width="808" height="182" rx="34" fill="#FFFDFC" stroke="#E8DCCF" stroke-width="2"/><rect x="226" y="968" width="160" height="112" rx="28" fill="#FFFDF9" stroke="#E8DCCF" stroke-width="2"/><circle cx="262" cy="1018" r="20" fill="#D88FA7"/><text x="318" y="1008" class="h3" text-anchor="middle">流量</text><text x="318" y="1040" class="small" text-anchor="middle">小水滴</text><rect x="414" y="968" width="160" height="112" rx="28" fill="#FFFDF9" stroke="#E8DCCF" stroke-width="2"/><circle cx="450" cy="1018" r="20" fill="#93B29A"/><text x="506" y="1008" class="h3" text-anchor="middle">疼痛</text><text x="506" y="1040" class="small" text-anchor="middle">小太阳</text><rect x="602" y="968" width="160" height="112" rx="28" fill="#FFFDF9" stroke="#E8DCCF" stroke-width="2"/><circle cx="638" cy="1018" r="20" fill="#C9A75C"/><text x="694" y="1008" class="h3" text-anchor="middle">情绪</text><text x="694" y="1040" class="small" text-anchor="middle">小笑脸</text><rect x="790" y="968" width="160" height="112" rx="28" fill="#FFFDF9" stroke="#E8DCCF" stroke-width="2"/><circle cx="826" cy="1018" r="20" fill="#D37F66"/><text x="882" y="1008" class="h3" text-anchor="middle">爱爱</text><text x="882" y="1040" class="small" text-anchor="middle">小心心</text><text x="196" y="1170" class="h2" text-anchor="start">本周小节律</text><rect x="196" y="1212" width="808" height="248" rx="34" fill="#FFFDFC" stroke="#E8DCCF" stroke-width="2"/><circle cx="918.0" cy="1251.6" r="11.200000000000001" fill="#F7CAD6" stroke="#E8DCCF" stroke-width="1"/><circle cx="930.8" cy="1262.8" r="11.200000000000001" fill="#F7CAD6" stroke="#E8DCCF" stroke-width="1"/><circle cx="926.0" cy="1277.2" r="11.200000000000001" fill="#F7CAD6" stroke="#E8DCCF" stroke-width="1"/><circle cx="910.0" cy="1277.2" r="11.200000000000001" fill="#F7CAD6" stroke="#E8DCCF" stroke-width="1"/><circle cx="905.2" cy="1262.8" r="11.200000000000001" fill="#F7CAD6" stroke="#E8DCCF" stroke-width="1"/><circle cx="918" cy="1266" r="8.0" fill="#F8E6B8" stroke="#E8DCCF" stroke-width="1"/><circle cx="915.6" cy="1264.4" r="1.4400000000000002" fill="#5D514C"/><circle cx="920.4" cy="1264.4" r="1.4400000000000002" fill="#5D514C"/><line x1="914.8" y1="1269.2" x2="921.2" y2="1269.2" stroke="#5D514C" stroke-width="1.6" stroke-linecap="round"/><rect x="246" y="1280" width="82" height="136" rx="24" fill="#F7CAD6" stroke="#E8DCCF" stroke-width="2"/><text x="287" y="1320" class="small" text-anchor="middle">一</text><text x="287" y="1372" class="h3" text-anchor="middle">18</text><rect x="350" y="1280" width="82" height="136" rx="24" fill="#F7CAD6" stroke="#E8DCCF" stroke-width="2"/><text x="391" y="1320" class="small" text-anchor="middle">二</text><text x="391" y="1372" class="h3" text-anchor="middle">19</text><rect x="454" y="1280" width="82" height="136" rx="24" fill="#FFFDF9" stroke="#E8DCCF" stroke-width="2"/><text x="495" y="1320" class="small" text-anchor="middle">三</text><text x="495" y="1372" class="h3" text-anchor="middle">20</text><rect x="558" y="1280" width="82" height="136" rx="24" fill="#DCEAD9" stroke="#E8DCCF" stroke-width="2"/><text x="599" y="1320" class="small" text-anchor="middle">四</text><text x="599" y="1372" class="h3" text-anchor="middle">21</text><rect x="662" y="1280" width="82" height="136" rx="24" fill="#DCEAD9" stroke="#E8DCCF" stroke-width="2"/><text x="703" y="1320" class="small" text-anchor="middle">五</text><text x="703" y="1372" class="h3" text-anchor="middle">22</text><rect x="766" y="1280" width="82" height="136" rx="24" fill="#F8E6B8" stroke="#E8DCCF" stroke-width="2"/><text x="807" y="1320" class="small" text-anchor="middle">六</text><text x="807" y="1372" class="h3" text-anchor="middle">23</text><rect x="870" y="1280" width="82" height="136" rx="24" fill="#FFFDF9" stroke="#E8DCCF" stroke-width="2"/><text x="911" y="1320" class="small" text-anchor="middle">日</text><text x="911" y="1372" class="h3" text-anchor="middle">24</text>
</svg>