<svg xmlns="http://www.w3.org/2000/svg" width="2400" height="1600" viewBox="0 0 2400 1600">
<style>
.h1 { font: 700 54px 'SF Pro Display', 'PingFang SC', sans-serif; fill: #5D514C; }
.h2 { font: 700 32px 'SF Pro Display', 'PingFang SC', sans-serif; fill: #5D514C; }
.h3 { font: 700 22px 'SF Pro Display', 'PingFang SC', sans-serif; fill: #5D514C; }
.body { font: 500 20px 'SF Pro Text', 'PingFang SC', sans-serif; fill: #8B7C75; }
.small { font: 500 16px 'SF Pro Text', 'PingFang SC', sans-serif; fill: #8B7C75; }
.label { font: 700 14px 'SF Pro Text', 'PingFang SC', sans-serif; letter-spacing: 2px; }
.nav { font: 600 16px 'SF Pro Text', 'PingFang SC', sans-serif; }
</style>
<rect x="0" y="0" width="2400" height="1600" rx="0" fill="#FFF8F3"/><circle cx="2140" cy="160" r="220" fill="#F7CAD6" opacity="0.32"/><circle cx="240" cy="1380" r="280" fill="#DCEAD9" opacity="0.45"/><text x="110" y="118" class="label" text-anchor="start" fill="#D88FA7">JAPANESE HEALING STYLE</text><text x="110" y="198" class="h1" text-anchor="start">日系治愈手绘风</text><text x="110" y="248" class="body" text-anchor="start">奶油纸底、手帐贴纸、樱花粉与浅抹茶，重点是温柔记录而不是功能面板。</text><rect x="110" y="330" width="840" height="520" rx="40" fill="#FFFDFC" stroke="#E8DCCF" stroke-width="2"/><circle cx="852.0" cy="383.04" r="10.08" fill="#F7CAD6" stroke="#E8DCCF" stroke-width="1"/><circle cx="863.52" cy="393.12" r="10.08" fill="#F7CAD6" stroke="#E8DCCF" stroke-width="1"/><circle cx="859.2" cy="406.08" r="10.08" fill="#F7CAD6" stroke="#E8DCCF" stroke-width="1"/><circle cx="844.8" cy="406.08" r="10.08" fill="#F7CAD6" stroke="#E8DCCF" stroke-width="1"/><circle cx="840.48" cy="393.12" r="10.08" fill="#F7CAD6" stroke="#E8DCCF" stroke-width="1"/><circle cx="852" cy="396" r="7.199999999999999" fill="#F8E6B8" stroke="#E8DCCF" stroke-width="1"/><circle cx="849.84" cy="394.56" r="1.296" fill="#5D514C"/><circle cx="854.16" cy="394.56" r="1.296" fill="#5D514C"/><line x1="849.12" y1="398.88" x2="854.88" y2="398.88" stroke="#5D514C" stroke-width="1.6" stroke-linecap="round"/><text x="150" y="398" class="h2" text-anchor="start">风格关键词</text><circle cx="168" cy="460" r="6" fill="#D88FA7"/><text x="190" y="468" class="body" text-anchor="start">手帐页感</text><circle cx="168" cy="516" r="6" fill="#93B29A"/><text x="190" y="524" class="body" text-anchor="start">手绘贴纸</text><circle cx="168" cy="572" r="6" fill="#C9A75C"/><text x="190" y="580" class="body" text-anchor="start">小花与叶子</text><circle cx="168" cy="628" r="6" fill="#D88FA7"/><text x="190" y="636" class="body" text-anchor="start">软边卡片</text><circle cx="168" cy="684" r="6" fill="#93B29A"/><text x="190" y="692" class="body" text-anchor="start">轻盈配色</text><circle cx="168" cy="740" r="6" fill="#C9A75C"/><text x="190" y="748" class="body" text-anchor="start">日常照护感</text><rect x="110" y="888" width="840" height="518" rx="40" fill="#FFFDFC" stroke="#E8DCCF" stroke-width="2"/><text x="150" y="952" class="h2" text-anchor="start">页面结构</text><rect x="150" y="1018" width="310" height="112" rx="28" fill="#F7CAD6" stroke="#E8DCCF" stroke-width="2"/><text x="174" y="1062" class="h3" text-anchor="start">Today</text><text x="174" y="1098" class="small" text-anchor="start">贴纸式内容卡 + 柔和插画</text><rect x="520" y="1018" width="310" height="112" rx="28" fill="#DCEAD9" stroke="#E8DCCF" stroke-width="2"/><text x="544" y="1062" class="h3" text-anchor="start">Journal</text><text x="544" y="1098" class="small" text-anchor="start">贴纸式内容卡 + 柔和插画</text><rect x="150" y="1178" width="310" height="112" rx="28" fill="#DDE9F7" stroke="#E8DCCF" stroke-width="2"/><text x="174" y="1222" class="h3" text-anchor="start">Trends</text><text x="174" y="1258" class="small" text-anchor="start">贴纸式内容卡 + 柔和插画</text><rect x="520" y="1178" width="310" height="112" rx="28" fill="#F8E6B8" stroke="#E8DCCF" stroke-width="2"/><text x="544" y="1222" class="h3" text-anchor="start">Vault</text><text x="544" y="1258" class="small" text-anchor="start">贴纸式内容卡 + 柔和插画</text><text x="1070" y="390" class="h2" text-anchor="start">新版 mockup</text><rect x="1070" y="430" width="282" height="574" rx="36" fill="#222024"/><rect x="1080" y="440" width="262" height="554" rx="28" fill="#FFFDF9"/><rect x="1096" y="466" width="230" height="102" rx="24" fill="#F7CAD6" stroke="#E8DCCF" stroke-width="2"/><text x="1116" y="512" class="h3" text-anchor="start">Today</text><circle cx="1288.0" cy="506.44" r="5.88" fill="#F7CAD6" stroke="#E8DCCF" stroke-width="1"/><circle cx="1294.72" cy="512.32" r="5.88" fill="#F7CAD6" stroke="#E8DCCF" stroke-width="1"/><circle cx="1292.2" cy="519.88" r="5.88" fill="#F7CAD6" stroke="#E8DCCF" stroke-width="1"/><circle cx="1283.8" cy="519.88" r="5.88" fill="#F7CAD6" stroke="#E8DCCF" stroke-width="1"/><circle cx="1281.28" cy="512.32" r="5.88" fill="#F7CAD6" stroke="#E8DCCF" stroke-width="1"/><circle cx="1288" cy="514" r="4.2" fill="#F8E6B8" stroke="#E8DCCF" stroke-width="1"/><circle cx="1286.74" cy="513.16" r="0.756" fill="#5D514C"/><circle cx="1289.26" cy="513.16" r="0.756" fill="#5D514C"/><line x1="1286.32" y1="515.68" x2="1289.68" y2="515.68" stroke="#5D514C" stroke-width="1.6" stroke-linecap="round"/><rect x="1098" y="594" width="226" height="118" rx="20" fill="#FFFDFC" stroke="#E8DCCF" stroke-width="2"/><rect x="1098" y="732" width="226" height="92" rx="20" fill="#FFFDFC" stroke="#E8DCCF" stroke-width="2"/><rect x="1098" y="844" width="226" height="112" rx="20" fill="#FFFDFC" stroke="#E8DCCF" stroke-width="2"/><rect x="1388" y="430" width="282" height="574" rx="36" fill="#222024"/><rect x="1398" y="440" width="262" height="554" rx="28" fill="#FFFDF9"/><rect x="1414" y="466" width="230" height="102" rx="24" fill="#DCEAD9" stroke="#E8DCCF" stroke-width="2"/><text x="1434" y="512" class="h3" text-anchor="start">Journal</text><circle cx="1606.0" cy="506.44" r="5.88" fill="#F7CAD6" stroke="#E8DCCF" stroke-width="1"/><circle cx="1612.72" cy="512.32" r="5.88" fill="#F7CAD6" stroke="#E8DCCF" stroke-width="1"/><circle cx="1610.2" cy="519.88" r="5.88" fill="#F7CAD6" stroke="#E8DCCF" stroke-width="1"/><circle cx="1601.8" cy="519.88" r="5.88" fill="#F7CAD6" stroke="#E8DCCF" stroke-width="1"/><circle cx="1599.28" cy="512.32" r="5.88" fill="#F7CAD6" stroke="#E8DCCF" stroke-width="1"/><circle cx="1606" cy="514" r="4.2" fill="#F8E6B8" stroke="#E8DCCF" stroke-width="1"/><circle cx="1604.74" cy="513.16" r="0.756" fill="#5D514C"/><circle cx="1607.26" cy="513.16" r="0.756" fill="#5D514C"/><line x1="1604.32" y1="515.68" x2="1607.68" y2="515.68" stroke="#5D514C" stroke-width="1.6" stroke-linecap="round"/><rect x="1416" y="594" width="226" height="118" rx="20" fill="#FFFDFC" stroke="#E8DCCF" stroke-width="2"/><rect x="1416" y="732" width="226" height="92" rx="20" fill="#FFFDFC" stroke="#E8DCCF" stroke-width="2"/><rect x="1416" y="844" width="226" height="112" rx="20" fill="#FFFDFC" stroke="#E8DCCF" stroke-width="2"/><rect x="1706" y="430" width="282" height="574" rx="36" fill="#222024"/><rect x="1716" y="440" width="262" height="554" rx="28" fill="#FFFDF9"/><rect x="1732" y="466" width="230" height="102" rx="24" fill="#DDE9F7" stroke="#E8DCCF" stroke-width="2"/><text x="1752" y="512" class="h3" text-anchor="start">Trends</text><circle cx="1924.0" cy="506.44" r="5.88" fill="#F7CAD6" stroke="#E8DCCF" stroke-width="1"/><circle cx="1930.72" cy="512.32" r="5.88" fill="#F7CAD6" stroke="#E8DCCF" stroke-width="1"/><circle cx="1928.2" cy="519.88" r="5.88" fill="#F7CAD6" stroke="#E8DCCF" stroke-width="1"/><circle cx="1919.8" cy="519.88" r="5.88" fill="#F7CAD6" stroke="#E8DCCF" stroke-width="1"/><circle cx="1917.28" cy="512.32" r="5.88" fill="#F7CAD6" stroke="#E8DCCF" stroke-width="1"/><circle cx="1924" cy="514" r="4.2" fill="#F8E6B8" stroke="#E8DCCF" stroke-width="1"/><circle cx="1922.74" cy="513.16" r="0.756" fill="#5D514C"/><circle cx="1925.26" cy="513.16" r="0.756" fill="#5D514C"/><line x1="1922.32" y1="515.68" x2="1925.68" y2="515.68" stroke="#5D514C" stroke-width="1.6" stroke-linecap="round"/><rect x="1734" y="594" width="226" height="118" rx="20" fill="#FFFDFC" stroke="#E8DCCF" stroke-width="2"/><rect x="1734" y="732" width="226" height="92" rx="20" fill="#FFFDFC" stroke="#E8DCCF" stroke-width="2"/><rect x="1734" y="844" width="226" height="112" rx="20" fill="#FFFDFC" stroke="#E8DCCF" stroke-width="2"/><rect x="2024" y="430" width="282" height="574" rx="36" fill="#222024"/><rect x="2034" y="440" width="262" height="554" rx="28" fill="#FFFDF9"/><rect x="2050" y="466" width="230" height="102" rx="24" fill="#F8E6B8" stroke="#E8DCCF" stroke-width="2"/><text x="2070" y="512" class="h3" text-anchor="start">Vault</text><circle cx="2242.0" cy="506.44" r="5.88" fill="#F7CAD6" stroke="#E8DCCF" stroke-width="1"/><circle cx="2248.72" cy="512.32" r="5.88" fill="#F7CAD6" stroke="#E8DCCF" stroke-width="1"/><circle cx="2246.2" cy="519.88" r="5.88" fill="#F7CAD6" stroke="#E8DCCF" stroke-width="1"/><circle cx="2237.8" cy="519.88" r="5.88" fill="#F7CAD6" stroke="#E8DCCF" stroke-width="1"/><circle cx="2235.28" cy="512.32" r="5.88" fill="#F7CAD6" stroke="#E8DCCF" stroke-width="1"/><circle cx="2242" cy="514" r="4.2" fill="#F8E6B8" stroke="#E8DCCF" stroke-width="1"/><circle cx="2240.74" cy="513.16" r="0.756" fill="#5D514C"/><circle cx="2243.26" cy="513.16" r="0.756" fill="#5D514C"/><line x1="2240.32" y1="515.68" x2="2243.68" y2="515.68" stroke="#5D514C" stroke-width="1.6" stroke-linecap="round"/><rect x="2052" y="594" width="226" height="118" rx="20" fill="#FFFDFC" stroke="#E8DCCF" stroke-width="2"/><rect x="2052" y="732" width="226" height="92" rx="20" fill="#FFFDFC" stroke="#E8DCCF" stroke-width="2"/><rect x="2052" y="844" width="226" height="112" rx="20" fill="#FFFDFC" stroke="#E8DCCF" stroke-width="2"/><rect x="1070" y="1060" width="1236" height="346" rx="40" fill="#FFFDFC" stroke="#E8DCCF" stroke-width="2"/><text x="1110" y="1122" class="h2" text-anchor="start">色板</text><rect x="1110" y="1178" width="150" height="80" rx="24" fill="#F7CAD6"/><rect x="1280" y="1178" width="150" height="80" rx="24" fill="#DCEAD9"/><rect x="1450" y="1178" width="150" height="80" rx="24" fill="#F8E6B8"/><rect x="1620" y="1178" width="150" height="80" rx="24" fill="#DDE9F7"/><rect x="1790" y="1178" width="150" height="80" rx="24" fill="#FFFDF9" stroke="#E8DCCF" stroke-width="2"/><text x="1110" y="1338" class="body" text-anchor="start">资源目录已接入品牌花朵、空状态和启动页插画。</text>
</svg>