<svg xmlns="http://www.w3.org/2000/svg" width="1200" height="2400" viewBox="0 0 1200 2400">
<style>
.h1 { font: 700 54px 'SF Pro Display', 'PingFang SC', sans-serif; fill: #5D514C; }
.h2 { font: 700 32px 'SF Pro Display', 'PingFang SC', sans-serif; fill: #5D514C; }
.h3 { font: 700 22px 'SF Pro Display', 'PingFang SC', sans-serif; fill: #5D514C; }
.body { font: 500 20px 'SF Pro Text', 'PingFang SC', sans-serif; fill: #8B7C75; }
.small { font: 500 16px 'SF Pro Text', 'PingFang SC', sans-serif; fill: #8B7C75; }
.label { font: 700 14px 'SF Pro Text', 'PingFang SC', sans-serif; letter-spacing: 2px; }
.nav { font: 600 16px 'SF Pro Text', 'PingFang SC', sans-serif; }
</style>
<rect x="0" y="0" width="1200" height="2400" rx="0" fill="#FFF8F3"/><circle cx="1060" cy="220" r="220" fill="#F7CAD6" opacity="0.32"/><circle cx="180" cy="2100" r="260" fill="#DCEAD9" opacity="0.5"/><circle cx="1080" cy="1870" r="150" fill="#F8E6B8" opacity="0.26"/><rect x="140" y="120" width="920" height="1960" rx="72" fill="#222024"/><rect x="158" y="138" width="884" height="1924" rx="58" fill="#FFFDF9"/><rect x="470" y="164" width="260" height="30" rx="15" fill="#1C1A1F"/><rect x="196" y="214" width="808" height="250" rx="36" fill="#F7CAD6" stroke="#E8DCCF" stroke-width="2"/><circle cx="904.0" cy="266.0" r="14.0" fill="#F7CAD6" stroke="#E8DCCF" stroke-width="1"/><circle cx="920.0" cy="280.0" r="14.0" fill="#F7CAD6" stroke="#E8DCCF" stroke-width="1"/><circle cx="914.0" cy="298.0" r="14.0" fill="#F7CAD6" stroke="#E8DCCF" stroke-width="1"/><circle cx="894.0" cy="298.0" r="14.0" fill="#F7CAD6" stroke="#E8DCCF" stroke-width="1"/><circle cx="888.0" cy="280.0" r="14.0" fill="#F7CAD6" stroke="#E8DCCF" stroke-width="1"/><circle cx="904" cy="284" r="10.0" fill="#F8E6B8" stroke="#E8DCCF" stroke-width="1"/><circle cx="901.0" cy="282.0" r="1.8" fill="#5D514C"/><circle cx="907.0" cy="282.0" r="1.8" fill="#5D514C"/><line x1="900.0" y1="288.0" x2="908.0" y2="288.0" stroke="#5D514C" stroke-width="1.6" stroke-linecap="round"/><path d="M 836 334 C 854 318, 862 332, 844 344 C 826 354, 828 332, 836 334 Z" fill="#DCEAD9" stroke="#E8DCCF" stroke-width="1.5"/><line x1="836" y1="334" x2="840" y2="344" stroke="#93B29A" stroke-width="2" stroke-linecap="round"/><text x="230" y="266" class="label" text-anchor="start" fill="#D88FA7">VAULT</text><text x="230" y="334" class="h1" text-anchor="start">安全中心</text><text x="230" y="380" class="body" text-anchor="start">像整理小抽屉一样管理提醒、备份和隐私。</text><rect x="230" y="408" width="124" height="38" rx="18" fill="#FFFDF9" stroke="#E8DCCF" stroke-width="1.2"/><text x="292.0" y="433" class="small" text-anchor="middle" fill="#D88FA7">柔和模式</text><rect x="364" y="408" width="136" height="38" rx="18" fill="#D88FA7" stroke="#E8DCCF" stroke-width="1.2"/><text x="432.0" y="433" class="small" text-anchor="middle" fill="#FFFFFF">快速记录</text><rect x="226" y="1876" width="748" height="118" rx="34" fill="#FFFDFC" stroke="#E8DCCF" stroke-width="2"/><circle cx="266" cy="1916" r="16" fill="#CCBEB4"/><text x="266" y="1960" class="nav" text-anchor="middle" fill="#8B7C75">Today</text><circle cx="446" cy="1916" r="16" fill="#CCBEB4"/><text x="446" y="1960" class="nav" text-anchor="middle" fill="#8B7C75">Journal</text><circle cx="636" cy="1916" r="16" fill="#CCBEB4"/><text x="636" y="1960" class="nav" text-anchor="middle" fill="#8B7C75">Trends</text><rect x="770" y="1890" width="138" height="88" rx="30" fill="#F8E6B8" stroke="#E8DCCF" stroke-width="2"/><circle cx="830" cy="1916" r="16" fill="#C9A75C"/><text x="830" y="1960" class="nav" text-anchor="middle" fill="#C9A75C">Vault</text><rect x="196" y="504" width="808" height="218" rx="38" fill="#FFFDFC" stroke="#E8DCCF" stroke-width="2"/><circle cx="928.0" cy="551.6" r="11.200000000000001" fill="#F7CAD6" stroke="#E8DCCF" stroke-width="1"/><circle cx="940.8" cy="562.8" r="11.200000000000001" fill="#F7CAD6" stroke="#E8DCCF" stroke-width="1"/><circle cx="936.0" cy="577.2" r="11.200000000000001" fill="#F7CAD6" stroke="#E8DCCF" stroke-width="1"/><circle cx="920.0" cy="577.2" r="11.200000000000001" fill="#F7CAD6" stroke="#E8DCCF" stroke-width="1"/><circle cx="915.2" cy="562.8" r="11.200000000000001" fill="#F7CAD6" stroke="#E8DCCF" stroke-width="1"/><circle cx="928" cy="566" r="8.0" fill="#F8E6B8" stroke="#E8DCCF" stroke-width="1"/><circle cx="925.6" cy="564.4" r="1.4400000000000002" fill="#5D514C"/><circle cx="930.4" cy="564.4" r="1.4400000000000002" fill="#5D514C"/><line x1="924.8" y1="569.2" x2="931.2" y2="569.2" stroke="#5D514C" stroke-width="1.6" stroke-linecap="round"/><text x="232" y="554" class="label" text-anchor="start" fill="#D88FA7">状态概览</text><text x="232" y="612" class="h2" text-anchor="start">本地优先 · 已开启 PIN</text><text x="232" y="652" class="body" text-anchor="start">提醒开启，通知隐藏敏感词，最近一次导出 3 天前。</text><rect x="196" y="780" width="808" height="164" rx="32" fill="#DCEAD9" stroke="#E8DCCF" stroke-width="2"/><text x="232" y="836" class="h3" text-anchor="start">周期设置</text><text x="232" y="878" class="body" text-anchor="start">28 天周期 · 经期 5 天 · 最近开始 3 月 11 日</text><text x="920" y="860" class="h1" text-anchor="middle" fill="#5D514C">›</text><rect x="196" y="974" width="808" height="164" rx="32" fill="#F7CAD6" stroke="#E8DCCF" stroke-width="2"/><text x="232" y="1030" class="h3" text-anchor="start">隐私与解锁</text><text x="232" y="1072" class="body" text-anchor="start">PIN 已设置 · 后台 5 分钟自动锁定</text><text x="920" y="1054" class="h1" text-anchor="middle" fill="#5D514C">›</text><rect x="196" y="1168" width="808" height="164" rx="32" fill="#F8E6B8" stroke="#E8DCCF" stroke-width="2"/><text x="232" y="1224" class="h3" text-anchor="start">每日提醒</text><text x="232" y="1266" class="body" text-anchor="start">21:00 · 提前 2 天提醒 · 敏感词隐藏</text><text x="920" y="1248" class="h1" text-anchor="middle" fill="#5D514C">›</text><rect x="196" y="1362" width="808" height="164" rx="32" fill="#DDE9F7" stroke="#E8DCCF" stroke-width="2"/><text x="232" y="1418" class="h3" text-anchor="start">备份与恢复</text><text x="232" y="1460" class="body" text-anchor="start">导出记录、指标与周期设置，不包含密码明文。</text><text x="920" y="1442" class="h1" text-anchor="middle" fill="#5D514C">›</text><rect x="196" y="1560" width="808" height="196" rx="34" fill="#FFFDFC" stroke="#E8DCCF" stroke-width="2"/><text x="232" y="1616" class="label" text-anchor="start" fill="#93B29A">数据健康度</text><text x="232" y="1674" class="h2" text-anchor="start">73%</text><rect x="232" y="1696" width="736" height="22" rx="11" fill="#F2E8DD"/><rect x="232" y="1696" width="536" height="22" rx="11" fill="#93B29A"/><text x="232" y="1746" class="small" text-anchor="start">建议先做一次导出，给自己留一份安心副本。</text>
</svg>