<svg xmlns="http://www.w3.org/2000/svg" width="1200" height="2400" viewBox="0 0 1200 2400">
<style>
.h1 { font: 700 54px 'SF Pro Display', 'PingFang SC', sans-serif; fill: #5D514C; }
.h2 { font: 700 32px 'SF Pro Display', 'PingFang SC', sans-serif; fill: #5D514C; }
.h3 { font: 700 22px 'SF Pro Display', 'PingFang SC', sans-serif; fill: #5D514C; }
.body { font: 500 20px 'SF Pro Text', 'PingFang SC', sans-serif; fill: #8B7C75; }
.small { font: 500 16px 'SF Pro Text', 'PingFang SC', sans-serif; fill: #8B7C75; }
.label { font: 700 14px 'SF Pro Text', 'PingFang SC', sans-serif; letter-spacing: 2px; }
.nav { font: 600 16px 'SF Pro Text', 'PingFang SC', sans-serif; }
</style>
<rect x="0" y="0" width="1200" height="2400" rx="0" fill="#FFF8F3"/><circle cx="1060" cy="220" r="220" fill="#F7CAD6" opacity="0.32"/><circle cx="180" cy="2100" r="260" fill="#DCEAD9" opacity="0.5"/><circle cx="1080" cy="1870" r="150" fill="#F8E6B8" opacity="0.26"/><rect x="140" y="120" width="920" height="1960" rx="72" fill="#222024"/><rect x="158" y="138" width="884" height="1924" rx="58" fill="#FFFDF9"/><rect x="470" y="164" width="260" height="30" rx="15" fill="#1C1A1F"/><rect x="196" y="214" width="808" height="250" rx="36" fill="#DCEAD9" stroke="#E8DCCF" stroke-width="2"/><circle cx="904.0" cy="266.0" r="14.0" fill="#F7CAD6" stroke="#E8DCCF" stroke-width="1"/><circle cx="920.0" cy="280.0" r="14.0" fill="#F7CAD6" stroke="#E8DCCF" stroke-width="1"/><circle cx="914.0" cy="298.0" r="14.0" fill="#F7CAD6" stroke="#E8DCCF" stroke-width="1"/><circle cx="894.0" cy="298.0" r="14.0" fill="#F7CAD6" stroke="#E8DCCF" stroke-width="1"/><circle cx="888.0" cy="280.0" r="14.0" fill="#F7CAD6" stroke="#E8DCCF" stroke-width="1"/><circle cx="904" cy="284" r="10.0" fill="#F8E6B8" stroke="#E8DCCF" stroke-width="1"/><circle cx="901.0" cy="282.0" r="1.8" fill="#5D514C"/><circle cx="907.0" cy="282.0" r="1.8" fill="#5D514C"/><line x1="900.0" y1="288.0" x2="908.0" y2="288.0" stroke="#5D514C" stroke-width="1.6" stroke-linecap="round"/><path d="M 836 334 C 854 318, 862 332, 844 344 C 826 354, 828 332, 836 334 Z" fill="#DCEAD9" stroke="#E8DCCF" stroke-width="1.5"/><line x1="836" y1="334" x2="840" y2="344" stroke="#93B29A" stroke-width="2" stroke-linecap="round"/><text x="230" y="266" class="label" text-anchor="start" fill="#93B29A">JOURNAL NOTE</text><text x="230" y="334" class="h1" text-anchor="start">记录中心</text><text x="230" y="380" class="body" text-anchor="start">把月历、状态和记录入口放进同一本手帐。</text><rect x="230" y="408" width="124" height="38" rx="18" fill="#FFFDF9" stroke="#E8DCCF" stroke-width="1.2"/><text x="292.0" y="433" class="small" text-anchor="middle" fill="#93B29A">柔和模式</text><rect x="364" y="408" width="136" height="38" rx="18" fill="#93B29A" stroke="#E8DCCF" stroke-width="1.2"/><text x="432.0" y="433" class="small" text-anchor="middle" fill="#FFFFFF">快速记录</text><rect x="226" y="1876" width="748" height="118" rx="34" fill="#FFFDFC" stroke="#E8DCCF" stroke-width="2"/><circle cx="266" cy="1916" r="16" fill="#CCBEB4"/><text x="266" y="1960" class="nav" text-anchor="middle" fill="#8B7C75">Today</text><rect x="386" y="1890" width="138" height="88" rx="30" fill="#DCEAD9" stroke="#E8DCCF" stroke-width="2"/><circle cx="446" cy="1916" r="16" fill="#93B29A"/><text x="446" y="1960" class="nav" text-anchor="middle" fill="#93B29A">Journal</text><circle cx="636" cy="1916" r="16" fill="#CCBEB4"/><text x="636" y="1960" class="nav" text-anchor="middle" fill="#8B7C75">Trends</text><circle cx="830" cy="1916" r="16" fill="#CCBEB4"/><text x="830" y="1960" class="nav" text-anchor="middle" fill="#8B7C75">Vault</text><rect x="196" y="504" width="808" height="420" rx="38" fill="#FFFDFC" stroke="#E8DCCF" stroke-width="2"/><text x="232" y="552" class="label" text-anchor="start" fill="#93B29A">2026 年 3 月</text><text x="232" y="610" class="h2" text-anchor="start">本月记录月历</text><text x="232" y="648" class="body" text-anchor="start">左右滑动换月，今天的状态做成一张贴纸卡。</text><rect x="232" y="692" width="74" height="42" rx="16" fill="#FFFDF9" stroke="#E8DCCF" stroke-width="2"/><text x="269" y="720" class="small" text-anchor="middle">1</text><rect x="328" y="692" width="74" height="42" rx="16" fill="#FFFDF9" stroke="#E8DCCF" stroke-width="2"/><text x="365" y="720" class="small" text-anchor="middle">2</text><rect x="424" y="692" width="74" height="42" rx="16" fill="#FFFDF9" stroke="#E8DCCF" stroke-width="2"/><text x="461" y="720" class="small" text-anchor="middle">3</text><rect x="520" y="692" width="74" height="42" rx="16" fill="#FFFDF9" stroke="#E8DCCF" stroke-width="2"/><text x="557" y="720" class="small" text-anchor="middle">4</text><rect x="616" y="692" width="74" height="42" rx="16" fill="#FFFDF9" stroke="#E8DCCF" stroke-width="2"/><text x="653" y="720" class="small" text-anchor="middle">5</text><rect x="712" y="692" width="74" height="42" rx="16" fill="#FFFDF9" stroke="#E8DCCF" stroke-width="2"/><text x="749" y="720" class="small" text-anchor="middle">6</text><rect x="808" y="692" width="74" height="42" rx="16" fill="#FFFDF9" stroke="#E8DCCF" stroke-width="2"/><text x="845" y="720" class="small" text-anchor="middle">7</text><rect x="232" y="748" width="74" height="42" rx="16" fill="#FFFDF9" stroke="#E8DCCF" stroke-width="2"/><text x="269" y="776" class="small" text-anchor="middle">8</text><rect x="328" y="748" width="74" height="42" rx="16" fill="#FFFDF9" stroke="#E8DCCF" stroke-width="2"/><text x="365" y="776" class="small" text-anchor="middle">9</text><rect x="424" y="748" width="74" height="42" rx="16" fill="#FFFDF9" stroke="#E8DCCF" stroke-width="2"/><text x="461" y="776" class="small" text-anchor="middle">10</text><rect x="520" y="748" width="74" height="42" rx="16" fill="#FFFDF9" stroke="#E8DCCF" stroke-width="2"/><text x="557" y="776" class="small" text-anchor="middle">11</text><rect x="616" y="748" width="74" height="42" rx="16" fill="#FFFDF9" stroke="#E8DCCF" stroke-width="2"/><text x="653" y="776" class="small" text-anchor="middle">12</text><rect x="712" y="748" width="74" height="42" rx="16" fill="#FFFDF9" stroke="#E8DCCF" stroke-width="2"/><text x="749" y="776" class="small" text-anchor="middle">13</text><rect x="808" y="748" width="74" height="42" rx="16" fill="#FFFDF9" stroke="#E8DCCF" stroke-width="2"/><text x="845" y="776" class="small" text-anchor="middle">14</text><rect x="232" y="804" width="74" height="42" rx="16" fill="#FFFDF9" stroke="#E8DCCF" stroke-width="2"/><text x="269" y="832" class="small" text-anchor="middle">15</text><rect x="328" y="804" width="74" height="42" rx="16" fill="#F7CAD6" stroke="#E8DCCF" stroke-width="2"/><text x="365" y="832" class="small" text-anchor="middle">16</text><rect x="424" y="804" width="74" height="42" rx="16" fill="#F7CAD6" stroke="#E8DCCF" stroke-width="2"/><text x="461" y="832" class="small" text-anchor="middle">17</text><rect x="520" y="804" width="74" height="42" rx="16" fill="#FFFDF9" stroke="#E8DCCF" stroke-width="2"/><text x="557" y="832" class="small" text-anchor="middle">18</text><rect x="616" y="804" width="74" height="42" rx="16" fill="#FFFDF9" stroke="#E8DCCF" stroke-width="2"/><text x="653" y="832" class="small" text-anchor="middle">19</text><rect x="712" y="804" width="74" height="42" rx="16" fill="#FFFDF9" stroke="#E8DCCF" stroke-width="2"/><text x="749" y="832" class="small" text-anchor="middle">20</text><rect x="808" y="804" width="74" height="42" rx="16" fill="#FFFDF9" stroke="#E8DCCF" stroke-width="2"/><text x="845" y="832" class="small" text-anchor="middle">21</text><rect x="232" y="860" width="74" height="42" rx="16" fill="#FFFDF9" stroke="#E8DCCF" stroke-width="2"/><text x="269" y="888" class="small" text-anchor="middle">22</text><rect x="328" y="860" width="74" height="42" rx="16" fill="#FFFDF9" stroke="#E8DCCF" stroke-width="2"/><text x="365" y="888" class="small" text-anchor="middle">23</text><rect x="424" y="860" width="74" height="42" rx="16" fill="#FFFDF9" stroke="#E8DCCF" stroke-width="2"/><text x="461" y="888" class="small" text-anchor="middle">24</text><rect x="520" y="860" width="74" height="42" rx="16" fill="#FFFDF9" stroke="#E8DCCF" stroke-width="2"/><text x="557" y="888" class="small" text-anchor="middle">25</text><rect x="616" y="860" width="74" height="42" rx="16" fill="#DCEAD9" stroke="#E8DCCF" stroke-width="2"/><text x="653" y="888" class="small" text-anchor="middle">26</text><rect x="712" y="860" width="74" height="42" rx="16" fill="#DCEAD9" stroke="#E8DCCF" stroke-width="2"/><text x="749" y="888" class="small" text-anchor="middle">27</text><rect x="808" y="860" width="74" height="42" rx="16" fill="#FFFDF9" stroke="#E8DCCF" stroke-width="2"/><text x="845" y="888" class="small" text-anchor="middle">28</text><rect x="232" y="916" width="74" height="42" rx="16" fill="#FFFDF9" stroke="#E8DCCF" stroke-width="2"/><text x="269" y="944" class="small" text-anchor="middle">29</text><rect x="328" y="916" width="74" height="42" rx="16" fill="#FFFDF9" stroke="#E8DCCF" stroke-width="2"/><text x="365" y="944" class="small" text-anchor="middle">30</text><rect x="424" y="916" width="74" height="42" rx="16" fill="#FFFDF9" stroke="#E8DCCF" stroke-width="2"/><text x="461" y="944" class="small" text-anchor="middle">31</text><rect x="520" y="916" width="74" height="42" rx="16" fill="#FFFDF9" stroke="#E8DCCF" stroke-width="2"/><text x="557" y="944" class="small" text-anchor="middle">32</text><rect x="616" y="916" width="74" height="42" rx="16" fill="#FFFDF9" stroke="#E8DCCF" stroke-width="2"/><text x="653" y="944" class="small" text-anchor="middle">33</text><rect x="712" y="916" width="74" height="42" rx="16" fill="#FFFDF9" stroke="#E8DCCF" stroke-width="2"/><text x="749" y="944" class="small" text-anchor="middle">34</text><rect x="808" y="916" width="74" height="42" rx="16" fill="#FFFDF9" stroke="#E8DCCF" stroke-width="2"/><text x="845" y="944" class="small" text-anchor="middle">35</text><rect x="196" y="974" width="808" height="164" rx="30" fill="#F7CAD6" stroke="#E8DCCF" stroke-width="2"/><circle cx="930.0" cy="1016.5" r="10.5" fill="#F7CAD6" stroke="#E8DCCF" stroke-width="1"/><circle cx="942.0" cy="1027.0" r="10.5" fill="#F7CAD6" stroke="#E8DCCF" stroke-width="1"/><circle cx="937.5" cy="1040.5" r="10.5" fill="#F7CAD6" stroke="#E8DCCF" stroke-width="1"/><circle cx="922.5" cy="1040.5" r="10.5" fill="#F7CAD6" stroke="#E8DCCF" stroke-width="1"/><circle cx="918.0" cy="1027.0" r="10.5" fill="#F7CAD6" stroke="#E8DCCF" stroke-width="1"/><circle cx="930" cy="1030" r="7.5" fill="#F8E6B8" stroke="#E8DCCF" stroke-width="1"/><circle cx="927.75" cy="1028.5" r="1.35" fill="#5D514C"/><circle cx="932.25" cy="1028.5" r="1.35" fill="#5D514C"/><line x1="927.0" y1="1033.0" x2="933.0" y2="1033.0" stroke="#5D514C" stroke-width="1.6" stroke-linecap="round"/><text x="232" y="1022" class="label" text-anchor="start" fill="#D88FA7">今日状态</text><text x="232" y="1076" class="h3" text-anchor="start">月经来了 / 月经走了</text><text x="232" y="1112" class="small" text-anchor="start">先记状态，再补当天指标。</text><rect x="696" y="1028" width="118" height="38" rx="18" fill="#D88FA7" stroke="#E8DCCF" stroke-width="1.2"/><text x="755.0" y="1053" class="small" text-anchor="middle" fill="#FFFFFF">来了</text><rect x="826" y="1028" width="118" height="38" rx="18" fill="#FFFDF9" stroke="#E8DCCF" stroke-width="1.2"/><text x="885.0" y="1053" class="small" text-anchor="middle" fill="#D88FA7">走了</text><text x="196" y="1192" class="h2" text-anchor="start">快速记录卡片</text><rect x="196" y="1234" width="808" height="332" rx="34" fill="#FFFDFC" stroke="#E8DCCF" stroke-width="2"/><rect x="226" y="1278" width="362" height="78" rx="24" fill="#F7CAD6" stroke="#E8DCCF" stroke-width="2"/><text x="252" y="1326" class="h3" text-anchor="start">流量</text><text x="526" y="1326" class="h2" text-anchor="middle" fill="#5D514C">+</text><rect x="618" y="1278" width="362" height="78" rx="24" fill="#F8E6B8" stroke="#E8DCCF" stroke-width="2"/><text x="644" y="1326" class="h3" text-anchor="start">疼痛</text><text x="918" y="1326" class="h2" text-anchor="middle" fill="#5D514C">+</text><rect x="226" y="1374" width="362" height="78" rx="24" fill="#F7CAD6" stroke="#E8DCCF" stroke-width="2"/><text x="252" y="1422" class="h3" text-anchor="start">情绪</text><text x="526" y="1422" class="h2" text-anchor="middle" fill="#5D514C">+</text><rect x="618" y="1374" width="362" height="78" rx="24" fill="#DDE9F7" stroke="#E8DCCF" stroke-width="2"/><text x="644" y="1422" class="h3" text-anchor="start">睡眠</text><text x="918" y="1422" class="h2" text-anchor="middle" fill="#5D514C">+</text><rect x="226" y="1470" width="362" height="78" rx="24" fill="#DCEAD9" stroke="#E8DCCF" stroke-width="2"/><text x="252" y="1518" class="h3" text-anchor="start">白带</text><text x="526" y="1518" class="h2" text-anchor="middle" fill="#5D514C">+</text><rect x="618" y="1470" width="362" height="78" rx="24" fill="#F6D8C7" stroke="#E8DCCF" stroke-width="2"/><text x="644" y="1518" class="h3" text-anchor="start">爱爱</text><text x="918" y="1518" class="h2" text-anchor="middle" fill="#5D514C">+</text><text x="196" y="1622" class="h2" text-anchor="start">同房记录</text><rect x="196" y="1664" width="808" height="176" rx="34" fill="#FFFDFC" stroke="#E8DCCF" stroke-width="2"/><text x="232" y="1722" class="h3" text-anchor="start">20:40 · 避孕套</text><text x="232" y="1762" class="body" text-anchor="start">措施支持多选，其他说明单独输入。</text><circle cx="922.0" cy="1716.3" r="9.1" fill="#F7CAD6" stroke="#E8DCCF" stroke-width="1"/><circle cx="932.4" cy="1725.4" r="9.1" fill="#F7CAD6" stroke="#E8DCCF" stroke-width="1"/><circle cx="928.5" cy="1737.1" r="9.1" fill="#F7CAD6" stroke="#E8DCCF" stroke-width="1"/><circle cx="915.5" cy="1737.1" r="9.1" fill="#F7CAD6" stroke="#E8DCCF" stroke-width="1"/><circle cx="911.6" cy="1725.4" r="9.1" fill="#F7CAD6" stroke="#E8DCCF" stroke-width="1"/><circle cx="922" cy="1728" r="6.5" fill="#F8E6B8" stroke="#E8DCCF" stroke-width="1"/><circle cx="920.05" cy="1726.7" r="1.1700000000000002" fill="#5D514C"/><circle cx="923.95" cy="1726.7" r="1.1700000000000002" fill="#5D514C"/><line x1="919.4" y1="1730.6" x2="924.6" y2="1730.6" stroke="#5D514C" stroke-width="1.6" stroke-linecap="round"/>
</svg>