<svg xmlns="http://www.w3.org/2000/svg" width="1200" height="2400" viewBox="0 0 1200 2400">
<style>
.h1 { font: 700 54px 'SF Pro Display', 'PingFang SC', sans-serif; fill: #5D514C; }
.h2 { font: 700 32px 'SF Pro Display', 'PingFang SC', sans-serif; fill: #5D514C; }
.h3 { font: 700 22px 'SF Pro Display', 'PingFang SC', sans-serif; fill: #5D514C; }
.body { font: 500 20px 'SF Pro Text', 'PingFang SC', sans-serif; fill: #8B7C75; }
.small { font: 500 16px 'SF Pro Text', 'PingFang SC', sans-serif; fill: #8B7C75; }
.label { font: 700 14px 'SF Pro Text', 'PingFang SC', sans-serif; letter-spacing: 2px; }
.nav { font: 600 16px 'SF Pro Text', 'PingFang SC', sans-serif; }
</style>
<rect x="0" y="0" width="1200" height="2400" rx="0" fill="#FFF8F3"/><circle cx="1060" cy="220" r="220" fill="#F7CAD6" opacity="0.32"/><circle cx="180" cy="2100" r="260" fill="#DCEAD9" opacity="0.5"/><circle cx="1080" cy="1870" r="150" fill="#F8E6B8" opacity="0.26"/><rect x="140" y="120" width="920" height="1960" rx="72" fill="#222024"/><rect x="158" y="138" width="884" height="1924" rx="58" fill="#FFFDF9"/><rect x="470" y="164" width="260" height="30" rx="15" fill="#1C1A1F"/><rect x="196" y="214" width="808" height="250" rx="36" fill="#DDE9F7" stroke="#E8DCCF" stroke-width="2"/><circle cx="904.0" cy="266.0" r="14.0" fill="#F7CAD6" stroke="#E8DCCF" stroke-width="1"/><circle cx="920.0" cy="280.0" r="14.0" fill="#F7CAD6" stroke="#E8DCCF" stroke-width="1"/><circle cx="914.0" cy="298.0" r="14.0" fill="#F7CAD6" stroke="#E8DCCF" stroke-width="1"/><circle cx="894.0" cy="298.0" r="14.0" fill="#F7CAD6" stroke="#E8DCCF" stroke-width="1"/><circle cx="888.0" cy="280.0" r="14.0" fill="#F7CAD6" stroke="#E8DCCF" stroke-width="1"/><circle cx="904" cy="284" r="10.0" fill="#F8E6B8" stroke="#E8DCCF" stroke-width="1"/><circle cx="901.0" cy="282.0" r="1.8" fill="#5D514C"/><circle cx="907.0" cy="282.0" r="1.8" fill="#5D514C"/><line x1="900.0" y1="288.0" x2="908.0" y2="288.0" stroke="#5D514C" stroke-width="1.6" stroke-linecap="round"/><path d="M 836 334 C 854 318, 862 332, 844 344 C 826 354, 828 332, 836 334 Z" fill="#DCEAD9" stroke="#E8DCCF" stroke-width="1.5"/><line x1="836" y1="334" x2="840" y2="344" stroke="#93B29A" stroke-width="2" stroke-linecap="round"/><text x="230" y="266" class="label" text-anchor="start" fill="#8AA4C4">TRENDS DIARY</text><text x="230" y="334" class="h1" text-anchor="start">趋势页</text><text x="230" y="380" class="body" text-anchor="start">像翻看手帐一样看最近的身体小波动。</text><rect x="230" y="408" width="124" height="38" rx="18" fill="#FFFDF9" stroke="#E8DCCF" stroke-width="1.2"/><text x="292.0" y="433" class="small" text-anchor="middle" fill="#8AA4C4">柔和模式</text><rect x="364" y="408" width="136" height="38" rx="18" fill="#8AA4C4" stroke="#E8DCCF" stroke-width="1.2"/><text x="432.0" y="433" class="small" text-anchor="middle" fill="#FFFFFF">快速记录</text><rect x="226" y="1876" width="748" height="118" rx="34" fill="#FFFDFC" stroke="#E8DCCF" stroke-width="2"/><circle cx="266" cy="1916" r="16" fill="#CCBEB4"/><text x="266" y="1960" class="nav" text-anchor="middle" fill="#8B7C75">Today</text><circle cx="446" cy="1916" r="16" fill="#CCBEB4"/><text x="446" y="1960" class="nav" text-anchor="middle" fill="#8B7C75">Journal</text><rect x="576" y="1890" width="138" height="88" rx="30" fill="#DDE9F7" stroke="#E8DCCF" stroke-width="2"/><circle cx="636" cy="1916" r="16" fill="#8AA4C4"/><text x="636" y="1960" class="nav" text-anchor="middle" fill="#8AA4C4">Trends</text><circle cx="830" cy="1916" r="16" fill="#CCBEB4"/><text x="830" y="1960" class="nav" text-anchor="middle" fill="#8B7C75">Vault</text><rect x="196" y="504" width="808" height="220" rx="38" fill="#FFFDFC" stroke="#E8DCCF" stroke-width="2"/><circle cx="926.0" cy="555.96" r="10.92" fill="#DDE9F7" stroke="#E8DCCF" stroke-width="1"/><circle cx="938.48" cy="566.88" r="10.92" fill="#DDE9F7" stroke="#E8DCCF" stroke-width="1"/><circle cx="933.8" cy="580.92" r="10.92" fill="#DDE9F7" stroke="#E8DCCF" stroke-width="1"/><circle cx="918.2" cy="580.92" r="10.92" fill="#DDE9F7" stroke="#E8DCCF" stroke-width="1"/><circle cx="913.52" cy="566.88" r="10.92" fill="#DDE9F7" stroke="#E8DCCF" stroke-width="1"/><circle cx="926" cy="570" r="7.800000000000001" fill="#F8E6B8" stroke="#E8DCCF" stroke-width="1"/><circle cx="923.66" cy="568.44" r="1.4040000000000001" fill="#5D514C"/><circle cx="928.34" cy="568.44" r="1.4040000000000001" fill="#5D514C"/><line x1="922.88" y1="573.12" x2="929.12" y2="573.12" stroke="#5D514C" stroke-width="1.6" stroke-linecap="round"/><text x="232" y="554" class="label" text-anchor="start" fill="#8AA4C4">趋势贴纸</text><text x="232" y="610" class="h2" text-anchor="start">最近 30 天有 82% 的记录覆盖</text><text x="232" y="650" class="body" text-anchor="start">情绪和睡眠有同步波动，可以继续观察。</text><rect x="196" y="786" width="808" height="260" rx="34" fill="#FFFDFC" stroke="#E8DCCF" stroke-width="2"/><text x="232" y="836" class="label" text-anchor="start" fill="#C9A75C">小趋势</text><text x="232" y="890" class="h3" text-anchor="start">睡眠 / 情绪 / 白带</text><line x1="260" y1="982" x2="400" y2="920" stroke="#D88FA7" stroke-width="8" stroke-linecap="round"/><line x1="400" y1="920" x2="560" y2="958" stroke="#93B29A" stroke-width="8" stroke-linecap="round"/><line x1="560" y1="958" x2="728" y2="904" stroke="#C9A75C" stroke-width="8" stroke-linecap="round"/><line x1="728" y1="904" x2="892" y2="944" stroke="#8AA4C4" stroke-width="8" stroke-linecap="round"/><line x1="252" y1="996" x2="948" y2="996" stroke="#E8DCCF" stroke-width="3" stroke-linecap="round"/><rect x="196" y="1108" width="808" height="234" rx="34" fill="#DCEAD9" stroke="#E8DCCF" stroke-width="2"/><text x="232" y="1160" class="label" text-anchor="start" fill="#93B29A">照护建议</text><text x="232" y="1218" class="h3" text-anchor="start">补充睡眠记录，趋势会更温柔地说话</text><text x="232" y="1260" class="body" text-anchor="start">卵泡期样本稳定，适合一起记体温和白带。</text><rect x="232" y="1298" width="156" height="38" rx="18" fill="#FFFDF9" stroke="#E8DCCF" stroke-width="1.2"/><text x="310.0" y="1323" class="small" text-anchor="middle" fill="#93B29A">补 3 天睡眠</text><rect x="404" y="1298" width="144" height="38" rx="18" fill="#F8E6B8" stroke="#E8DCCF" stroke-width="1.2"/><text x="476.0" y="1323" class="small" text-anchor="middle" fill="#C9A75C">记录体温</text><rect x="196" y="1404" width="808" height="216" rx="34" fill="#FFFDFC" stroke="#E8DCCF" stroke-width="2"/><text x="232" y="1458" class="label" text-anchor="start" fill="#D88FA7">红旗信号</text><text x="232" y="1514" class="h3" text-anchor="start">经期若推迟超过 7 天，建议尽快验孕或就医</text><text x="232" y="1554" class="body" text-anchor="start">把重要提醒做成固定贴纸，不埋在长列表里。</text>
</svg>